<?xml version="1.0" encoding="UTF-8"?>
<svg xmlns="http://www.w3.org/2000/svg" viewBox="0 0 100 100" width="100" height="100">
  <!-- Steam squiggles — terracotta -->
  <g stroke="#D2691E" stroke-width="5" fill="none" stroke-linecap="round" stroke-linejoin="round">
    <path d="M 36 47 C 31 41, 40 36, 35 30 C 30 24, 41 18, 36 11"/>
    <path d="M 50 45 C 55 39, 45 33, 51 26 C 56 19, 45 13, 51 5"/>
    <path d="M 64 47 C 69 41, 60 36, 65 30 C 70 24, 60 19, 65 12"/>
  </g>
  <!-- Pot — warm brown -->
  <g stroke="#2B2118" stroke-width="5" fill="none" stroke-linecap="round" stroke-linejoin="round">
    <path d="M 16 50 Q 50 47, 84 50"/>
    <path d="M 22 56 C 12 57, 11 71, 23 72"/>
    <path d="M 78 56 C 89 57, 90 70, 77 73"/>
    <path d="M 20 50 C 19 66, 22 82, 24 86 C 32 89, 68 89, 76 86 C 79 82, 81 66, 80 50"/>
  </g>
</svg>
